<?xml version="1.0" encoding="UTF-8" ?>
<!DOCTYPE svg PUBLIC "-//W3C//DTD SVG 1.1//EN" "http://www.w3.org/Graphics/SVG/1.1/DTD/svg11.dtd">
<svg width="1280pt" height="720pt" viewBox="0 0 1280 720" version="1.1" xmlns="http://www.w3.org/2000/svg">
<g id="#bf7755ff">
<path fill="#bf7755" opacity="1.00" d=" M 0.00 0.00 L 0.12 0.00 C 0.09 0.04 0.03 0.11 0.00 0.15 L 0.00 0.00 Z" />
<path fill="#bf7755" opacity="1.00" d=" M 163.64 333.85 L 164.53 333.58 C 203.29 379.83 241.81 426.27 280.66 472.44 C 282.48 474.53 284.30 476.66 285.71 479.07 C 281.42 483.37 276.40 486.84 272.10 491.14 C 267.02 496.22 260.44 499.31 254.82 503.68 C 249.88 508.16 245.00 512.76 239.43 516.46 C 235.64 518.94 232.15 521.83 228.76 524.81 C 223.00 529.83 216.09 533.28 210.14 538.02 C 201.17 546.35 190.04 551.84 180.84 559.88 C 154.86 579.39 128.43 598.30 102.39 617.73 C 102.32 617.22 102.17 616.19 102.10 615.68 C 122.50 522.04 143.20 428.47 163.45 334.81 C 163.50 334.57 163.59 334.09 163.64 333.85 Z" />
</g>
<g id="#6a373aff">
<path fill="#6a373a" opacity="1.00" d=" M 0.12 0.00 L 169.14 0.00 C 175.50 38.19 181.30 76.48 187.45 114.71 C 188.37 121.26 189.81 127.74 190.27 134.34 C 184.70 131.64 180.02 127.54 174.89 124.14 C 150.63 108.14 126.80 91.49 102.51 75.52 C 77.91 58.30 52.58 42.16 27.93 25.01 C 18.59 18.88 9.49 12.40 0.00 6.50 L 0.00 0.15 C 0.03 0.11 0.09 0.04 0.12 0.00 Z" />
</g>
<g id="#b36648ff">
<path fill="#b36648" opacity="1.00" d=" M 169.14 0.00 L 192.31 0.00 C 199.19 8.01 206.51 15.62 212.96 23.98 C 220.97 32.70 228.56 41.78 236.24 50.80 C 239.81 55.62 244.58 59.58 247.03 65.18 C 229.33 86.81 211.63 108.44 193.87 130.01 C 192.84 131.33 191.96 132.76 191.10 134.20 L 190.90 134.53 C 190.74 134.96 190.43 135.80 190.28 136.23 C 190.28 135.76 190.28 134.81 190.27 134.34 C 189.81 127.74 188.37 121.26 187.45 114.71 C 181.30 76.48 175.50 38.19 169.14 0.00 Z" />
</g>
<g id="#ac6147ff">
<path fill="#ac6147" opacity="1.00" d=" M 192.31 0.00 L 300.44 0.00 C 282.67 21.75 264.79 43.42 247.03 65.18 C 244.58 59.58 239.81 55.62 236.24 50.80 C 228.56 41.78 220.97 32.70 212.96 23.98 C 206.51 15.62 199.19 8.01 192.31 0.00 Z" />
</g>
<g id="#dba661ff">
<path fill="#dba661" opacity="1.00" d=" M 300.44 0.00 L 557.49 0.00 C 541.99 6.33 526.09 11.64 510.41 17.50 C 410.61 54.12 310.78 90.62 210.98 127.22 C 204.39 129.65 197.85 132.23 191.10 134.20 C 191.96 132.76 192.84 131.33 193.87 130.01 C 211.63 108.44 229.33 86.81 247.03 65.18 C 264.79 43.42 282.67 21.75 300.44 0.00 Z" />
</g>
<g id="#edc977ff">
<path fill="#edc977" opacity="1.00" d=" M 557.49 0.00 L 676.08 0.00 C 611.07 110.71 546.50 221.69 481.45 332.39 C 481.32 332.66 481.05 333.19 480.92 333.46 L 480.54 332.94 C 477.01 329.83 472.95 327.43 469.11 324.74 C 387.42 268.79 305.76 212.81 224.05 156.88 C 212.97 149.48 202.27 141.49 190.90 134.53 L 191.10 134.20 C 197.85 132.23 204.39 129.65 210.98 127.22 C 310.78 90.62 410.61 54.12 510.41 17.50 C 526.09 11.64 541.99 6.33 557.49 0.00 Z" />
</g>
<g id="#f7e890ff">
<path fill="#f7e890" opacity="1.00" d=" M 676.08 0.00 L 713.17 0.00 C 718.07 46.97 722.30 94.01 726.96 141.01 C 729.55 168.36 732.43 195.68 734.95 223.03 C 735.80 230.12 736.00 237.27 737.23 244.31 L 736.89 245.46 C 728.97 249.77 720.02 251.46 711.69 254.78 C 702.03 258.16 692.14 260.90 682.62 264.69 C 663.50 270.67 644.63 277.43 625.62 283.74 C 605.87 290.88 585.83 297.16 565.95 303.92 C 549.98 309.86 533.58 314.55 517.64 320.58 C 505.54 324.41 493.65 328.89 481.45 332.39 C 546.50 221.69 611.07 110.71 676.08 0.00 Z" />
</g>
<g id="#f9f29fff">
<path fill="#f9f29f" opacity="1.00" d=" M 713.17 0.00 L 820.33 0.00 C 817.84 8.40 814.89 16.65 811.86 24.87 C 805.84 43.08 799.73 61.26 793.39 79.36 C 786.18 101.65 778.10 123.62 770.84 145.89 C 763.22 167.14 756.46 188.68 749.02 209.99 C 744.75 221.31 741.50 232.99 737.23 244.31 C 736.00 237.27 735.80 230.12 734.95 223.03 C 732.43 195.68 729.55 168.36 726.96 141.01 C 722.30 94.01 718.07 46.97 713.17 0.00 Z" />
</g>
<g id="#eeefaeff">
<path fill="#eeefae" opacity="1.00" d=" M 820.33 0.00 L 887.54 0.00 C 941.43 81.53 995.50 162.95 1049.43 244.45 C 1060.35 261.08 1071.62 277.49 1082.30 294.27 C 1082.10 294.51 1081.70 294.98 1081.50 295.22 C 1069.84 296.02 1058.56 299.39 1047.04 301.18 C 1017.04 307.30 986.93 312.81 956.89 318.68 C 920.24 325.67 883.66 332.91 847.01 339.88 C 837.62 341.79 828.17 343.47 818.66 344.61 L 818.07 344.64 C 808.39 331.86 797.63 319.93 787.68 307.35 C 774.34 291.33 761.06 275.26 747.86 259.13 C 744.16 254.60 740.21 250.28 736.89 245.46 L 737.23 244.31 C 741.50 232.99 744.75 221.31 749.02 209.99 C 756.46 188.68 763.22 167.14 770.84 145.89 C 778.10 123.62 786.18 101.65 793.39 79.36 C 799.73 61.26 805.84 43.08 811.86 24.87 C 814.89 16.65 817.84 8.40 820.33 0.00 Z" />
</g>
<g id="#becb9dff">
<path fill="#becb9d" opacity="1.00" d=" M 887.54 0.00 L 1049.80 0.00 C 1072.29 7.84 1095.09 14.79 1117.70 22.27 C 1170.35 39.37 1223.00 56.49 1275.67 73.53 C 1270.90 80.07 1265.07 85.76 1259.90 91.98 C 1200.86 159.29 1141.73 226.51 1082.69 293.82 L 1082.30 294.27 C 1071.62 277.49 1060.35 261.08 1049.43 244.45 C 995.50 162.95 941.43 81.53 887.54 0.00 Z" />
</g>
<g id="#668783ff">
<path fill="#668783" opacity="1.00" d=" M 1049.80 0.00 L 1241.40 0.00 C 1250.50 19.16 1259.36 38.44 1268.36 57.65 C 1270.75 62.64 1272.84 67.77 1275.60 72.58 L 1275.67 73.53 C 1223.00 56.49 1170.35 39.37 1117.70 22.27 C 1095.09 14.79 1072.29 7.84 1049.80 0.00 Z" />
</g>
<g id="#1d3966ff">
<path fill="#1d3966" opacity="1.00" d=" M 1241.40 0.00 L 1276.03 0.00 C 1276.38 15.35 1275.86 30.71 1276.08 46.06 C 1275.90 54.90 1276.41 63.76 1275.60 72.58 C 1272.84 67.77 1270.75 62.64 1268.36 57.65 C 1259.36 38.44 1250.50 19.16 1241.40 0.00 Z" />
</g>
<g id="#234871ff">
<path fill="#234871" opacity="1.00" d=" M 1276.03 0.00 L 1280.00 0.00 L 1280.00 281.70 C 1278.17 267.32 1279.00 252.75 1278.62 238.28 C 1278.35 226.85 1278.51 215.40 1277.84 203.98 C 1277.45 185.98 1277.91 167.96 1276.74 149.98 C 1276.76 134.99 1276.56 120.00 1276.29 105.01 C 1275.27 94.54 1275.85 84.02 1275.67 73.53 L 1275.60 72.58 C 1276.41 63.76 1275.90 54.90 1276.08 46.06 C 1275.86 30.71 1276.38 15.35 1276.03 0.00 Z" />
</g>
<g id="#7f4244ff">
<path fill="#7f4244" opacity="1.00" d=" M 0.00 6.50 C 9.49 12.40 18.59 18.88 27.93 25.01 C 52.58 42.16 77.91 58.30 102.51 75.52 C 126.80 91.49 150.63 108.14 174.89 124.14 C 180.02 127.54 184.70 131.64 190.27 134.34 C 190.28 134.81 190.28 135.76 190.28 136.23 C 181.40 202.10 172.49 267.97 163.64 333.85 C 163.59 334.09 163.50 334.57 163.45 334.81 C 163.27 330.76 161.26 327.24 159.12 323.93 C 120.71 251.65 82.36 179.32 44.00 107.00 C 29.24 79.56 14.95 51.88 0.00 24.53 L 0.00 6.50 Z" />
</g>
<g id="#753b44ff">
<path fill="#753b44" opacity="1.00" d=" M 0.00 24.53 C 14.95 51.88 29.24 79.56 44.00 107.00 C 82.36 179.32 120.71 251.65 159.12 323.93 C 161.26 327.24 163.27 330.76 163.45 334.81 C 159.52 336.94 156.29 340.06 152.90 342.91 C 101.75 384.85 51.28 427.63 0.00 469.40 L 0.00 24.53 Z" />
</g>
<g id="#598288ff">
<path fill="#598288" opacity="1.00" d=" M 1275.67 73.53 C 1275.85 84.02 1275.27 94.54 1276.29 105.01 C 1276.56 120.00 1276.76 134.99 1276.74 149.98 C 1277.91 167.96 1277.45 185.98 1277.84 203.98 C 1278.51 215.40 1278.35 226.85 1278.62 238.28 C 1279.00 252.75 1278.17 267.32 1280.00 281.70 L 1280.00 720.00 L 1266.04 720.00 C 1234.39 646.95 1203.09 573.73 1171.57 500.62 C 1141.98 431.67 1112.20 362.80 1082.69 293.82 C 1141.73 226.51 1200.86 159.29 1259.90 91.98 C 1265.07 85.76 1270.90 80.07 1275.67 73.53 Z" />
</g>
<g id="#cb8b5bff">
<path fill="#cb8b5b" opacity="1.00" d=" M 190.90 134.53 C 202.27 141.49 212.97 149.48 224.05 156.88 C 305.76 212.81 387.42 268.79 469.11 324.74 C 472.95 327.43 477.01 329.83 480.54 332.94 C 381.35 333.04 282.15 332.96 182.95 333.13 C 176.82 333.33 170.63 332.66 164.53 333.58 L 163.64 333.85 C 172.49 267.97 181.40 202.10 190.28 136.23 C 190.43 135.80 190.74 134.96 190.90 134.53 Z" />
</g>
<g id="#f7efa1ff">
<path fill="#f7efa1" opacity="1.00" d=" M 711.69 254.78 C 720.02 251.46 728.97 249.77 736.89 245.46 C 740.21 250.28 744.16 254.60 747.86 259.13 C 761.06 275.26 774.34 291.33 787.68 307.35 C 797.63 319.93 808.39 331.86 818.07 344.64 C 808.33 345.26 798.66 343.58 788.94 343.81 C 776.26 343.90 763.65 342.40 750.97 342.71 C 739.40 341.56 727.78 342.12 716.20 341.43 C 707.03 340.38 697.79 341.33 688.63 340.38 C 678.66 339.41 668.61 340.33 658.64 339.41 C 649.98 338.49 641.24 339.34 632.59 338.43 C 624.19 337.61 615.74 338.37 607.35 337.55 C 596.87 336.55 586.31 337.60 575.85 336.43 C 567.68 335.59 559.46 336.57 551.30 335.64 C 541.10 334.58 530.82 335.68 520.63 334.54 C 512.20 333.68 503.70 334.65 495.28 333.68 C 490.68 333.11 485.93 333.84 481.45 332.39 C 493.65 328.89 505.54 324.41 517.64 320.58 C 533.58 314.55 549.98 309.86 565.95 303.92 C 585.83 297.16 605.87 290.88 625.62 283.74 C 644.63 277.43 663.50 270.67 682.62 264.69 C 692.14 260.90 702.03 258.16 711.69 254.78 Z" />
</g>
<g id="#b2c5a5ff">
<path fill="#b2c5a5" opacity="1.00" d=" M 1082.30 294.27 L 1082.69 293.82 C 1112.20 362.80 1141.98 431.67 1171.57 500.62 C 1203.09 573.73 1234.39 646.95 1266.04 720.00 L 1228.55 720.00 C 1222.38 713.27 1214.86 708.01 1208.32 701.68 C 1150.95 651.38 1093.58 601.08 1036.25 550.73 C 1001.89 521.09 968.19 490.72 933.92 460.98 C 931.64 458.93 929.48 456.76 927.17 454.74 C 927.07 455.35 926.87 456.56 926.76 457.17 C 926.36 455.90 926.02 454.61 925.71 453.33 C 943.05 436.48 959.71 418.94 976.76 401.79 C 995.79 382.50 1014.84 363.24 1033.83 343.92 C 1049.74 327.70 1066.01 311.82 1081.50 295.22 C 1081.70 294.98 1082.10 294.51 1082.30 294.27 Z" />
</g>
<g id="#eaefb5ff">
<path fill="#eaefb5" opacity="1.00" d=" M 1047.04 301.18 C 1058.56 299.39 1069.84 296.02 1081.50 295.22 C 1066.01 311.82 1049.74 327.70 1033.83 343.92 C 1014.84 363.24 995.79 382.50 976.76 401.79 C 959.71 418.94 943.05 436.48 925.71 453.33 C 925.55 453.58 925.23 454.09 925.07 454.34 C 921.96 451.63 919.47 448.34 916.69 445.33 C 905.87 434.45 895.05 423.57 884.19 412.73 C 879.22 408.03 875.27 402.38 870.21 397.78 C 859.39 386.60 847.82 376.13 837.70 364.30 C 831.52 357.98 825.18 351.83 819.00 345.51 L 818.66 344.61 C 828.17 343.47 837.62 341.79 847.01 339.88 C 883.66 332.91 920.24 325.67 956.89 318.68 C 986.93 312.81 1017.04 307.30 1047.04 301.18 Z" />
</g>
<g id="#f6e692ff">
<path fill="#f6e692" opacity="1.00" d=" M 480.92 333.46 C 481.05 333.19 481.32 332.66 481.45 332.39 C 485.93 333.84 490.68 333.11 495.28 333.68 C 503.70 334.65 512.20 333.68 520.63 334.54 C 530.82 335.68 541.10 334.58 551.30 335.64 C 559.46 336.57 567.68 335.59 575.85 336.43 C 586.31 337.60 596.87 336.55 607.35 337.55 C 615.74 338.37 624.19 337.61 632.59 338.43 C 641.24 339.34 649.98 338.49 658.64 339.41 C 668.61 340.33 678.66 339.41 688.63 340.38 C 697.79 341.33 707.03 340.38 716.20 341.43 C 727.78 342.12 739.40 341.56 750.97 342.71 C 763.65 342.40 776.26 343.90 788.94 343.81 C 798.66 343.58 808.33 345.26 818.07 344.64 L 818.66 344.61 L 819.00 345.51 C 778.70 414.42 738.56 483.42 698.34 552.38 C 680.43 582.86 662.92 613.60 644.70 643.90 C 643.98 644.93 643.25 645.94 642.59 647.01 L 642.31 647.53 C 588.52 542.83 534.65 438.18 480.92 333.46 Z" />
</g>
<g id="#dba967ff">
<path fill="#dba967" opacity="1.00" d=" M 164.53 333.58 C 170.63 332.66 176.82 333.33 182.95 333.13 C 282.15 332.96 381.35 333.04 480.54 332.94 C 453.88 353.88 426.80 374.27 400.00 395.03 C 369.86 418.18 339.67 441.28 309.50 464.40 C 302.34 469.64 295.57 475.39 288.28 480.45 C 288.03 481.37 287.80 482.31 287.58 483.25 C 287.36 482.74 286.93 481.73 286.71 481.22 C 286.39 480.49 286.06 479.77 285.71 479.07 C 284.30 476.66 282.48 474.53 280.66 472.44 C 241.81 426.27 203.29 379.83 164.53 333.58 Z" />
</g>
<g id="#efcb7bff">
<path fill="#efcb7b" opacity="1.00" d=" M 480.54 332.94 L 480.92 333.46 C 534.65 438.18 588.52 542.83 642.31 647.53 C 630.02 642.52 618.24 636.33 606.16 630.83 C 501.45 581.57 396.74 532.29 292.03 483.04 C 290.71 482.27 289.49 481.35 288.28 480.45 C 295.57 475.39 302.34 469.64 309.50 464.40 C 339.67 441.28 369.86 418.18 400.00 395.03 C 426.80 374.27 453.88 353.88 480.54 332.94 Z" />
</g>
<g id="#944a4aff">
<path fill="#944a4a" opacity="1.00" d=" M 152.90 342.91 C 156.29 340.06 159.52 336.94 163.45 334.81 C 143.20 428.47 122.50 522.04 102.10 615.68 C 101.71 616.79 101.31 617.90 100.90 619.01 C 67.18 576.63 33.69 534.07 0.00 491.66 L 0.00 469.40 C 51.28 427.63 101.75 384.85 152.90 342.91 Z" />
</g>
<g id="#f9f6b0ff">
<path fill="#f9f6b0" opacity="1.00" d=" M 698.34 552.38 C 738.56 483.42 778.70 414.42 819.00 345.51 C 825.18 351.83 831.52 357.98 837.70 364.30 C 847.82 376.13 859.39 386.60 870.21 397.78 C 875.27 402.38 879.22 408.03 884.19 412.73 C 895.05 423.57 905.87 434.45 916.69 445.33 C 919.47 448.34 921.96 451.63 925.07 454.34 C 921.88 467.29 917.40 479.87 913.69 492.67 C 905.27 520.51 896.67 548.28 888.30 576.12 L 887.58 574.99 C 886.86 576.90 886.18 578.83 885.54 580.77 C 879.86 570.85 873.30 561.46 867.19 551.82 C 864.16 546.01 859.78 541.07 856.72 535.30 C 853.67 529.76 849.62 524.85 846.71 519.24 C 845.32 516.46 843.43 513.97 841.15 511.86 C 835.05 515.82 829.27 520.23 823.04 523.99 C 819.00 526.61 815.32 529.79 811.01 531.99 C 806.29 534.44 802.55 538.29 798.09 541.13 C 790.72 546.34 782.96 550.98 775.90 556.61 C 732.25 586.17 689.04 616.37 645.27 645.73 C 645.12 645.27 644.84 644.36 644.70 643.90 C 662.92 613.60 680.43 582.86 698.34 552.38 Z" />
</g>
<g id="#dee5aeff">
<path fill="#dee5ae" opacity="1.00" d=" M 925.07 454.34 C 925.23 454.09 925.55 453.58 925.71 453.33 C 926.02 454.61 926.36 455.90 926.76 457.17 C 960.19 540.73 993.61 624.32 1027.00 707.90 C 1028.66 711.93 1030.12 716.04 1031.95 720.00 L 944.24 720.00 C 932.08 701.68 920.74 682.80 908.63 664.44 C 898.41 647.45 887.28 631.03 876.80 614.21 C 880.36 601.43 884.52 588.83 888.30 576.12 C 896.67 548.28 905.27 520.51 913.69 492.67 C 917.40 479.87 921.88 467.29 925.07 454.34 Z" />
</g>
<g id="#98b19fff">
<path fill="#98b19f" opacity="1.00" d=" M 927.17 454.74 C 929.48 456.76 931.64 458.93 933.92 460.98 C 968.19 490.72 1001.89 521.09 1036.25 550.73 C 1093.58 601.08 1150.95 651.38 1208.32 701.68 C 1214.86 708.01 1222.38 713.27 1228.55 720.00 L 1031.95 720.00 C 1030.12 716.04 1028.66 711.93 1027.00 707.90 C 993.61 624.32 960.19 540.73 926.76 457.17 C 926.87 456.56 927.07 455.35 927.17 454.74 Z" />
</g>
<g id="#a65c4eff">
<path fill="#a65c4e" opacity="1.00" d=" M 285.71 479.07 C 286.06 479.77 286.39 480.49 286.71 481.22 C 284.01 486.39 284.04 492.36 282.46 497.88 C 273.21 535.22 263.55 572.45 254.43 609.82 C 248.40 632.32 243.08 655.00 237.37 677.58 C 233.68 691.70 230.74 706.02 226.55 720.00 L 123.36 720.00 C 118.00 695.65 112.69 671.29 107.34 646.94 C 105.09 637.65 103.67 628.15 100.90 619.01 C 101.31 617.90 101.71 616.79 102.10 615.68 C 102.17 616.19 102.32 617.22 102.39 617.73 C 128.43 598.30 154.86 579.39 180.84 559.88 C 190.04 551.84 201.17 546.35 210.14 538.02 C 216.09 533.28 223.00 529.83 228.76 524.81 C 232.15 521.83 235.64 518.94 239.43 516.46 C 245.00 512.76 249.88 508.16 254.82 503.68 C 260.44 499.31 267.02 496.22 272.10 491.14 C 276.40 486.84 281.42 483.37 285.71 479.07 Z" />
</g>
<g id="#e1b26cff">
<path fill="#e1b26c" opacity="1.00" d=" M 287.58 483.25 C 287.80 482.31 288.03 481.37 288.28 480.45 C 289.49 481.35 290.71 482.27 292.03 483.04 C 396.74 532.29 501.45 581.57 606.16 630.83 C 618.24 636.33 630.02 642.52 642.31 647.53 C 640.79 651.05 638.52 654.15 636.29 657.25 C 622.20 678.20 608.01 699.09 593.87 720.00 L 336.26 720.00 C 327.02 674.56 317.63 629.15 308.35 583.73 C 301.39 550.24 294.77 516.68 287.58 483.25 Z" />
</g>
<g id="#c27e57ff">
<path fill="#c27e57" opacity="1.00" d=" M 282.46 497.88 C 284.04 492.36 284.01 486.39 286.71 481.22 C 286.93 481.73 287.36 482.74 287.58 483.25 C 294.77 516.68 301.39 550.24 308.35 583.73 C 317.63 629.15 327.02 674.56 336.26 720.00 L 226.55 720.00 C 230.74 706.02 233.68 691.70 237.37 677.58 C 243.08 655.00 248.40 632.32 254.43 609.82 C 263.55 572.45 273.21 535.22 282.46 497.88 Z" />
</g>
<g id="#552b40ff">
<path fill="#552b40" opacity="1.00" d=" M 0.00 491.66 C 33.69 534.07 67.18 576.63 100.90 619.01 C 103.67 628.15 105.09 637.65 107.34 646.94 C 112.69 671.29 118.00 695.65 123.36 720.00 L 0.00 720.00 L 0.00 491.66 Z" />
</g>
<g id="#f8f4acff">
<path fill="#f8f4ac" opacity="1.00" d=" M 823.04 523.99 C 829.27 520.23 835.05 515.82 841.15 511.86 C 843.43 513.97 845.32 516.46 846.71 519.24 C 849.62 524.85 853.67 529.76 856.72 535.30 C 859.78 541.07 864.16 546.01 867.19 551.82 C 873.30 561.46 879.86 570.85 885.54 580.77 C 886.18 578.83 886.86 576.90 887.58 574.99 L 888.30 576.12 C 884.52 588.83 880.36 601.43 876.80 614.21 C 870.17 635.95 863.55 657.70 856.96 679.46 C 855.44 679.53 853.50 679.89 852.68 678.25 C 851.19 675.69 849.51 673.27 847.82 670.86 C 846.18 666.82 843.07 663.64 841.34 659.66 C 839.99 656.35 836.47 654.49 835.38 651.08 C 834.27 647.94 831.79 645.58 830.50 642.54 C 827.62 640.68 827.08 637.03 825.07 634.46 C 820.51 626.62 815.85 618.79 810.24 611.64 C 808.79 609.45 807.92 606.88 806.09 604.95 C 803.87 602.56 803.47 599.10 801.35 596.65 C 797.45 592.11 795.33 586.41 791.71 581.66 C 791.20 581.92 790.71 582.20 790.23 582.48 C 790.29 577.76 787.26 574.08 784.26 570.81 C 781.17 566.26 778.42 561.50 775.90 556.61 C 782.96 550.98 790.72 546.34 798.09 541.13 C 802.55 538.29 806.29 534.44 811.01 531.99 C 815.32 529.79 819.00 526.61 823.04 523.99 Z" />
</g>
<g id="#f7f2a7ff">
<path fill="#f7f2a7" opacity="1.00" d=" M 645.27 645.73 C 689.04 616.37 732.25 586.17 775.90 556.61 C 778.42 561.50 781.17 566.26 784.26 570.81 C 787.26 574.08 790.29 577.76 790.23 582.48 C 790.71 582.20 791.20 581.92 791.71 581.66 C 795.33 586.41 797.45 592.11 801.35 596.65 C 803.47 599.10 803.87 602.56 806.09 604.95 C 807.92 606.88 808.79 609.45 810.24 611.64 C 815.85 618.79 820.51 626.62 825.07 634.46 C 827.08 637.03 827.62 640.68 830.50 642.54 C 831.79 645.58 834.27 647.94 835.38 651.08 C 836.47 654.49 839.99 656.35 841.34 659.66 C 843.07 663.64 846.18 666.82 847.82 670.86 C 849.51 673.27 851.19 675.69 852.68 678.25 C 853.50 679.89 855.44 679.53 856.96 679.46 C 852.85 692.96 848.54 706.41 844.72 720.00 L 685.02 720.00 C 671.60 697.66 658.70 675.00 645.36 652.60 C 644.32 650.79 643.43 648.91 642.59 647.01 C 643.25 645.94 643.98 644.93 644.70 643.90 C 644.84 644.36 645.12 645.27 645.27 645.73 Z" />
</g>
<g id="#d7e0aaff">
<path fill="#d7e0aa" opacity="1.00" d=" M 856.96 679.46 C 863.55 657.70 870.17 635.95 876.80 614.21 C 887.28 631.03 898.41 647.45 908.63 664.44 C 920.74 682.80 932.08 701.68 944.24 720.00 L 844.72 720.00 C 848.54 706.41 852.85 692.96 856.96 679.46 Z" />
</g>
<g id="#f1db84ff">
<path fill="#f1db84" opacity="1.00" d=" M 642.31 647.53 L 642.59 647.01 C 643.43 648.91 644.32 650.79 645.36 652.60 C 658.70 675.00 671.60 697.66 685.02 720.00 L 593.87 720.00 C 608.01 699.09 622.20 678.20 636.29 657.25 C 638.52 654.15 640.79 651.05 642.31 647.53 Z" />
</g>
</svg>
